# xmcd CD database file
#
# Track frame offsets:
#	150
#	13301
#	23237
#	36486
#	48854
#	60550
#	72810
#	83030
#	97066
#	110527
#
# Disc length: 1670 seconds
#
# Revision: 0
# Processed by: cddbd v1.5.1PL2 Copyright (c) Steve Scherf et al.
# Submitted via: cdripper 1,0,33,916
#
DISCID=8206840a
DTITLE=Lynn Anderson - Lynn Anderson All-Time Greatest Hits
DYEAR=1900
DGENRE=Country
TTITLE0=Rose Garden
TTITLE1=What a Man, My Man Is
TTITLE2=Top Of The World
TTITLE3=Listen To A Country Song
TTITLE4=You're My Man
TTITLE5=How Can I Unlove You
TTITLE6=Fool Me
TTITLE7=Cry
TTITLE8=Keep Me In Mind
TTITLE9=We've Only Just Begun
EXTD=
EXTT0=
EXTT1=
EXTT2=
EXTT3=
EXTT4=
EXTT5=
EXTT6=
EXTT7=
EXTT8=
EXTT9=
PLAYORDER=
